<svg width="154" height="16" viewBox="0 0 154 16" fill="none" xmlns="http://www.w3.org/2000/svg">
<g clip-path="url(#clip0_9_77)">
<path d="M2.47071 11.2766C1.35182 10.0863 0.736088 8.49896 0.755128 6.85392C0.774169 5.20888 1.42647 3.63667 2.5726 2.47337C3.71873 1.31007 5.26773 0.647995 6.88849 0.62867C8.50925 0.609345 10.0731 1.23431 11.2459 2.36995L2.47071 11.2766Z" fill="#262262"/>
<path d="M8.75345 4.85565C9.81373 6.05424 10.3814 7.61954 10.3397 9.22981C10.298 10.8401 9.65019 12.373 8.52937 13.5134C7.40855 14.6538 5.8999 15.3152 4.31351 15.3615C2.72712 15.4078 1.18352 14.8355 0 13.7623L8.75345 4.85565Z" fill="#00A79D"/>
<path d="M145.225 11.6679C144.649 11.0831 144.192 10.3889 143.881 9.62494C143.569 8.86097 143.409 8.04222 143.409 7.21541C143.41 6.38861 143.57 5.56995 143.882 4.80618C144.194 4.04241 144.651 3.34849 145.228 2.76403C145.804 2.17958 146.488 1.71603 147.24 1.39987C147.993 1.0837 148.8 0.921101 149.614 0.921357C150.429 0.921612 151.235 1.08472 151.988 1.40136C152.74 1.718 153.424 2.18197 154 2.76679L145.225 11.6679Z" fill="#262262"/>
<path d="M151.529 5.2525C152.695 6.4336 153.351 8.03638 153.352 9.70825C153.354 11.3801 152.701 12.9841 151.537 14.1674C150.374 15.3507 148.795 16.0163 147.147 16.0179C145.5 16.0194 143.92 15.3568 142.754 14.1757L151.529 5.2525Z" fill="#00A79D"/>
<path d="M58.6623 11.4475C57.7567 12.7736 56.3844 13.6965 54.8283 14.0259C53.2721 14.3553 51.6507 14.0662 50.2984 13.218C48.9461 12.3699 47.9659 11.0274 47.5601 9.46744C47.1542 7.90745 47.3535 6.24886 48.1169 4.83362L58.6623 11.4475Z" fill="#00A79D"/>
<path d="M49.002 12.5828C48.3692 12.012 47.8581 11.3158 47.5003 10.537C47.1424 9.75828 46.9453 8.91345 46.9211 8.05451C46.8968 7.19556 47.046 6.34066 47.3593 5.5424C47.6727 4.74413 48.1437 4.01937 48.7432 3.4127C49.3428 2.80603 50.0583 2.33027 50.8458 2.01469C51.6332 1.69911 52.476 1.55037 53.3221 1.57763C54.1683 1.6049 55.0001 1.80758 55.7662 2.17322C56.5324 2.53885 57.2167 3.05971 57.7772 3.70376L49.002 12.5828Z" fill="#262262"/>
<path d="M38.0601 14.4237H44.0496L37.8429 1.83536L34.8509 7.90907L38.0601 14.4237Z" fill="#262262"/>
<path d="M34.7423 8.12952L37.8429 14.4237H31.6417L34.7423 8.12952Z" fill="#00A79D"/>
<path d="M85.7535 1.96762H79.764L85.9707 14.5615L88.9627 8.48226L85.7535 1.96762Z" fill="#262262"/>
<path d="M89.0713 8.2618L85.9706 1.96762H92.1719L89.0713 8.2618Z" fill="#00A79D"/>
<path d="M72.4658 6.02963H62.3874V10.2294H72.4658V6.02963Z" fill="#00A79D"/>
<path d="M74.7954 1.83536H62.3874V6.03515H74.7954V1.83536Z" fill="#262262"/>
<path d="M74.7954 10.2294H62.3874V14.4292H74.7954V10.2294Z" fill="#262262"/>
<path d="M135.456 6.16742H125.378V10.3672H135.456V6.16742Z" fill="#00A79D"/>
<path d="M137.785 1.96762H125.378V6.16741H137.785V1.96762Z" fill="#262262"/>
<path d="M137.785 10.3617H125.378V14.5615H137.785V10.3617Z" fill="#262262"/>
<path d="M99.2746 4.52497C98.8469 4.52374 98.4278 4.40333 98.063 4.17687C97.6982 3.95041 97.4016 3.62661 97.2057 3.24078V14.5615H101.343V3.24078C101.148 3.62701 100.852 3.95115 100.487 4.17767C100.122 4.4042 99.7024 4.52435 99.2746 4.52497Z" fill="#262262"/>
<path d="M99.2746 4.33207C100.453 4.33207 101.409 3.3623 101.409 2.16604C101.409 0.969767 100.453 0 99.2746 0C98.096 0 97.1406 0.969767 97.1406 2.16604C97.1406 3.3623 98.096 4.33207 99.2746 4.33207Z" fill="#00A79D"/>
<path d="M108.001 6.69101H116.629C117.658 6.69101 118.644 7.10561 119.371 7.84361C120.098 8.58161 120.507 9.58256 120.507 10.6262C120.507 11.6699 120.098 12.6709 119.371 13.4089C118.644 14.1469 117.658 14.5615 116.629 14.5615H108.001V6.69101Z" fill="#00A79D"/>
<path d="M108.001 1.96762H116.581C116.887 1.96544 117.191 2.02484 117.475 2.14241C117.759 2.25998 118.017 2.4334 118.235 2.65266C118.452 2.87193 118.625 3.13271 118.743 3.41999C118.86 3.70728 118.921 4.01538 118.921 4.32656C118.921 4.95219 118.676 5.55219 118.24 5.99458C117.804 6.43697 117.213 6.6855 116.597 6.6855H108.017V1.96762H108.001Z" fill="#00A79D"/>
<path d="M112.361 1.96762H108.001V14.5615H112.361V1.96762Z" fill="#262262"/>
<path d="M17.1594 1.83536H25.7825C26.8108 1.83536 27.7969 2.24996 28.5241 2.98796C29.2512 3.72596 29.6596 4.72691 29.6596 5.7706C29.6596 6.28738 29.5594 6.7991 29.3645 7.27655C29.1697 7.75399 28.8841 8.18781 28.5241 8.55323C28.164 8.91865 27.7366 9.20852 27.2662 9.40628C26.7958 9.60405 26.2916 9.70584 25.7825 9.70584H17.1594V1.83536Z" fill="#00A79D"/>
<path d="M21.5198 1.83536H17.1594V14.4292H21.5198V1.83536Z" fill="#262262"/>
</g>
<defs>
<clipPath id="clip0_9_77">
<rect width="154" height="16" fill="white"/>
</clipPath>
</defs>
</svg>
