<svg width="24" height="25" viewBox="0 0 24 25" fill="none" xmlns="http://www.w3.org/2000/svg">
<path d="M12.007 3.04189C15.2152 3.04189 15.5951 3.05596 16.8568 3.11224C18.0293 3.16384 18.6625 3.36083 19.0846 3.52498C19.6428 3.74074 20.0461 4.00339 20.4636 4.42082C20.8857 4.84294 21.1436 5.24162 21.3594 5.79976C21.5236 6.22188 21.7205 6.85975 21.7721 8.02762C21.8284 9.29399 21.8425 9.6739 21.8425 12.8773C21.8425 16.0855 21.8284 16.4654 21.7721 17.7271C21.7205 18.8996 21.5236 19.5328 21.3594 19.9549C21.1436 20.5131 20.881 20.9164 20.4636 21.3339C20.0414 21.756 19.6428 22.0139 19.0846 22.2297C18.6625 22.3939 18.0246 22.5908 16.8568 22.6424C15.5904 22.6987 15.2105 22.7128 12.007 22.7128C8.79891 22.7128 8.419 22.6987 7.15732 22.6424C5.98476 22.5908 5.35157 22.3939 4.92945 22.2297C4.37131 22.0139 3.96795 21.7513 3.55052 21.3339C3.1284 20.9117 2.87043 20.5131 2.65468 19.9549C2.49052 19.5328 2.29353 18.8949 2.24194 17.7271C2.18566 16.4607 2.17159 16.0808 2.17159 12.8773C2.17159 9.66921 2.18566 9.2893 2.24194 8.02762C2.29353 6.85506 2.49052 6.22188 2.65468 5.79976C2.87043 5.24162 3.13309 4.83825 3.55052 4.42082C3.97264 3.9987 4.37131 3.74074 4.92945 3.52498C5.35157 3.36083 5.98945 3.16384 7.15732 3.11224C8.419 3.05596 8.79891 3.04189 12.007 3.04189ZM12.007 0.879684C8.74731 0.879684 8.33926 0.893755 7.05882 0.950038C5.78308 1.00632 4.906 1.21269 4.14618 1.50818C3.35353 1.81773 2.68282 2.22579 2.01681 2.89649C1.3461 3.56251 0.93805 4.23321 0.628493 5.02117C0.333008 5.78568 0.126637 6.65807 0.0703537 7.93382C0.0140707 9.21895 0 9.627 0 12.8867C0 16.1464 0.0140707 16.5545 0.0703537 17.8349C0.126637 19.1107 0.333008 19.9878 0.628493 20.7476C0.93805 21.5402 1.3461 22.2109 2.01681 22.8769C2.68282 23.543 3.35353 23.9557 4.14149 24.2606C4.906 24.5561 5.77839 24.7624 7.05413 24.8187C8.33457 24.875 8.74262 24.8891 12.0023 24.8891C15.2621 24.8891 15.6701 24.875 16.9506 24.8187C18.2263 24.7624 19.1034 24.5561 19.8632 24.2606C20.6512 23.9557 21.3219 23.543 21.9879 22.8769C22.6539 22.2109 23.0666 21.5402 23.3715 20.7523C23.667 19.9878 23.8734 19.1154 23.9296 17.8396C23.9859 16.5592 24 16.1511 24 12.8914C24 9.63169 23.9859 9.22364 23.9296 7.9432C23.8734 6.66745 23.667 5.79037 23.3715 5.03055C23.076 4.23321 22.668 3.56251 21.9973 2.89649C21.3313 2.23048 20.6605 1.81773 19.8726 1.51287C19.1081 1.21738 18.2357 1.01101 16.9599 0.954728C15.6748 0.893755 15.2668 0.879684 12.007 0.879684Z" fill="black"/>
<path d="M12.007 6.71904C8.60191 6.71904 5.83936 9.4816 5.83936 12.8867C5.83936 16.2918 8.60191 19.0544 12.007 19.0544C15.4122 19.0544 18.1747 16.2918 18.1747 12.8867C18.1747 9.4816 15.4122 6.71904 12.007 6.71904ZM12.007 16.8875C9.79792 16.8875 8.00625 15.0958 8.00625 12.8867C8.00625 10.6776 9.79792 8.88593 12.007 8.88593C14.2161 8.88593 16.0078 10.6776 16.0078 12.8867C16.0078 15.0958 14.2161 16.8875 12.007 16.8875Z" fill="black"/>
<path d="M19.8584 6.4751C19.8584 7.27245 19.2112 7.91501 18.4185 7.91501C17.6212 7.91501 16.9786 7.26776 16.9786 6.4751C16.9786 5.67776 17.6259 5.03519 18.4185 5.03519C19.2112 5.03519 19.8584 5.68245 19.8584 6.4751Z" fill="black"/>
</svg>
