<svg width="22" height="25" viewBox="0 0 22 25" fill="none" xmlns="http://www.w3.org/2000/svg">
<path d="M2.03943 22.4594C-0.679553 19.74 -0.680069 15.3381 2.03943 12.6183L12.5868 2.06955C14.6795 -0.0231839 18.0843 -0.0231839 20.1768 2.06955C22.2742 4.16716 22.2746 7.56265 20.1768 9.66068L11.2957 18.543C9.82331 20.0155 7.42762 20.0155 5.95537 18.5431C4.47979 17.0674 4.47928 14.6781 5.95537 13.2019L13.477 5.67926C13.6967 5.45955 14.0529 5.45955 14.2726 5.67926L15.0679 6.47477C15.2875 6.69443 15.2875 7.05054 15.0679 7.2702L7.54607 14.793C6.94964 15.3894 6.94936 16.3552 7.54607 16.952C8.1412 17.5471 9.10964 17.5472 9.70486 16.9519L18.586 8.0696C19.8042 6.85137 19.8045 4.87929 18.5861 3.66072C17.3706 2.44507 15.393 2.44516 14.1775 3.66072L3.63018 14.2094C1.79039 16.0494 1.78996 19.028 3.63014 20.8684C5.47162 22.7101 8.45287 22.7099 10.294 20.867C13.3542 17.8039 16.415 14.7413 19.4764 11.6792C19.6961 11.4595 20.0521 11.4597 20.2718 11.6794L21.0672 12.4749C21.2868 12.6946 21.287 13.0505 21.0674 13.2702C18.0062 16.332 14.9455 19.3945 11.8854 22.4575C9.16509 25.1805 4.76025 25.1806 2.03943 22.4594Z" fill="black"/>
</svg>
