<svg width="24" height="25" viewBox="0 0 24 25" fill="none" xmlns="http://www.w3.org/2000/svg">
<g clip-path="url(#clip0_67_178)">
<path d="M24 12.8891C24 6.26165 18.6274 0.889069 12 0.889069C5.37258 0.889069 0 6.26165 0 12.8891C0 18.8785 4.3882 23.8431 10.125 24.7433V16.3578H7.07812V12.8891H10.125V10.2453C10.125 7.23782 11.9166 5.57657 14.6576 5.57657C15.9701 5.57657 17.3438 5.81094 17.3438 5.81094V8.76407H15.8306C14.34 8.76407 13.875 9.68915 13.875 10.6391V12.8891H17.2031L16.6711 16.3578H13.875V24.7433C19.6118 23.8431 24 18.8785 24 12.8891Z" fill="black"/>
</g>
<defs>
<clipPath id="clip0_67_178">
<rect width="24" height="24" fill="white" transform="translate(0 0.889069)"/>
</clipPath>
</defs>
</svg>
