<svg width="24" height="25" viewBox="0 0 24 25" fill="none" xmlns="http://www.w3.org/2000/svg">
<g clip-path="url(#clip0_67_165)">
<path d="M7.55016 22.6391C16.6045 22.6391 21.5583 15.1358 21.5583 8.63098C21.5583 8.42004 21.5536 8.20441 21.5442 7.99347C22.5079 7.29658 23.3395 6.43337 24 5.44441C23.1025 5.84371 22.1496 6.1045 21.1739 6.21785C22.2013 5.60202 22.9705 4.63459 23.3391 3.49488C22.3726 4.06767 21.3156 4.47173 20.2134 4.68972C19.4708 3.90068 18.489 3.37823 17.4197 3.20317C16.3504 3.0281 15.2532 3.21016 14.2977 3.72121C13.3423 4.23226 12.5818 5.04382 12.1338 6.03043C11.6859 7.01703 11.5754 8.12373 11.8195 9.17941C9.86249 9.0812 7.94794 8.57282 6.19998 7.68721C4.45203 6.80161 2.90969 5.55855 1.67297 4.03863C1.0444 5.12236 0.852057 6.40476 1.13503 7.62521C1.418 8.84565 2.15506 9.91256 3.19641 10.6091C2.41463 10.5843 1.64998 10.3738 0.965625 9.99504V10.056C0.964925 11.1933 1.3581 12.2957 2.07831 13.1759C2.79852 14.0561 3.80132 14.6597 4.91625 14.8841C4.19206 15.0822 3.43198 15.1111 2.69484 14.9685C3.00945 15.9466 3.62157 16.802 4.44577 17.4154C5.26997 18.0289 6.26512 18.3697 7.29234 18.3903C5.54842 19.7602 3.39417 20.5032 1.17656 20.4997C0.783287 20.4991 0.390399 20.475 0 20.4275C2.25286 21.8729 4.87353 22.6405 7.55016 22.6391Z" fill="black"/>
</g>
<defs>
<clipPath id="clip0_67_165">
<rect width="24" height="24" fill="white" transform="translate(0 0.889069)"/>
</clipPath>
</defs>
</svg>
